<svg width="24" height="24" viewBox="0 0 24 24" fill="none" xmlns="http://www.w3.org/2000/svg">
<path d="M20.5 7.27774L12 12M12 12L3.49997 7.27774M12 12L12 21.5M21 12V7.94144C21 7.59879 21 7.42747 20.9495 7.27468C20.9049 7.1395 20.8318 7.01542 20.7354 6.91073C20.6263 6.79239 20.4766 6.70919 20.177 6.54279L12.777 2.43168C12.4934 2.27412 12.3516 2.19534 12.2015 2.16445C12.0685 2.13712 11.9315 2.13712 11.7986 2.16445C11.6484 2.19534 11.5066 2.27412 11.223 2.43168L3.82297 6.54279C3.52345 6.70919 3.37368 6.79239 3.26463 6.91073C3.16816 7.01542 3.09515 7.1395 3.05048 7.27468C3 7.42748 3 7.5988 3 7.94144V16.0585C3 16.4012 3 16.5725 3.05048 16.7253C3.09515 16.8605 3.16816 16.9846 3.26463 17.0893C3.37368 17.2076 3.52346 17.2908 3.82297 17.4572L11.223 21.5683C11.5066 21.7259 11.6484 21.8046 11.7986 21.8355C11.9315 21.8629 12.0685 21.8629 12.2015 21.8355C12.3516 21.8046 12.4934 21.7259 12.777 21.5683L13 21.4444M7.5 4.49999L16.5 9.49999M22 21.5L21 20.5M22 18C22 19.6568 20.6569 21 19 21C17.3431 21 16 19.6568 16 18C16 16.3431 17.3431 15 19 15C20.6569 15 22 16.3431 22 18Z" stroke="#1F1F1F" stroke-linecap="round" stroke-linejoin="round"/>
</svg>
